<mxfile host="app.diagrams.net" modified="2022-07-09T08:37:56.377Z" agent="5.0 (Macintosh; Intel Mac OS X 10_15_7) AppleWebKit/537.36 (KHTML, like Gecko) Chrome/99.0.4844.83 Safari/537.36" etag="xhJuGc3qaGfEfYjrps-S" version="20.0.4" type="github">
  <diagram id="3228e29e-7158-1315-38df-8450db1d8a1d" name="Page-1">
    <mxGraphModel dx="1234" dy="825" grid="1" gridSize="10" guides="1" tooltips="1" connect="1" arrows="1" fold="1" page="1" pageScale="1" pageWidth="1169" pageHeight="827" background="none" math="0" shadow="0">
      <root>
        <mxCell id="0" />
        <mxCell id="1" parent="0" />
        <mxCell id="GMpulBl-000TZXIC2TtP-21592" value="" style="html=1;shadow=0;dashed=0;align=center;verticalAlign=middle;shape=mxgraph.arrows2.jumpInArrow;dy=15;dx=38;arrowHead=55;fillColor=#a20025;fontColor=#ffffff;strokeColor=#6F0000;" vertex="1" parent="1">
          <mxGeometry x="160" y="324" width="180" height="180" as="geometry" />
        </mxCell>
        <mxCell id="GMpulBl-000TZXIC2TtP-21593" value="" style="html=1;shadow=0;dashed=0;align=center;verticalAlign=middle;shape=mxgraph.arrows2.jumpInArrow;dy=15;dx=38;arrowHead=55;rotation=112;fillColor=#e3c800;fontColor=#000000;strokeColor=#B09500;" vertex="1" parent="1">
          <mxGeometry x="510" y="420" width="180" height="180" as="geometry" />
        </mxCell>
        <mxCell id="GMpulBl-000TZXIC2TtP-21594" value="" style="html=1;shadow=0;dashed=0;align=center;verticalAlign=middle;shape=mxgraph.arrows2.jumpInArrow;dy=15;dx=38;arrowHead=55;rotation=-135;fillColor=#1ba1e2;fontColor=#ffffff;strokeColor=#006EAF;" vertex="1" parent="1">
          <mxGeometry x="270" y="647" width="180" height="180" as="geometry" />
        </mxCell>
        <mxCell id="GMpulBl-000TZXIC2TtP-21599" value="" style="edgeStyle=orthogonalEdgeStyle;rounded=0;orthogonalLoop=1;jettySize=auto;html=1;" edge="1" parent="1" source="GMpulBl-000TZXIC2TtP-21595">
          <mxGeometry relative="1" as="geometry">
            <mxPoint x="480" y="350" as="targetPoint" />
          </mxGeometry>
        </mxCell>
        <mxCell id="GMpulBl-000TZXIC2TtP-21595" value="&lt;font color=&quot;#000000&quot;&gt;德新&lt;/font&gt;" style="shape=umlActor;verticalLabelPosition=bottom;verticalAlign=top;html=1;outlineConnect=0;fillColor=#0050ef;fontColor=#ffffff;strokeColor=#001DBC;" vertex="1" parent="1">
          <mxGeometry x="400" y="320" width="30" height="60" as="geometry" />
        </mxCell>
        <mxCell id="GMpulBl-000TZXIC2TtP-21600" style="edgeStyle=orthogonalEdgeStyle;rounded=0;orthogonalLoop=1;jettySize=auto;html=1;" edge="1" parent="1" target="GMpulBl-000TZXIC2TtP-21595">
          <mxGeometry relative="1" as="geometry">
            <mxPoint x="480" y="350" as="sourcePoint" />
          </mxGeometry>
        </mxCell>
        <mxCell id="GMpulBl-000TZXIC2TtP-21603" value="&lt;font color=&quot;#000000&quot;&gt;罗群&lt;/font&gt;" style="shape=umlActor;verticalLabelPosition=bottom;verticalAlign=top;html=1;outlineConnect=0;fillColor=#0050ef;fontColor=#ffffff;strokeColor=#001DBC;" vertex="1" parent="1">
          <mxGeometry x="480" y="320" width="30" height="60" as="geometry" />
        </mxCell>
        <mxCell id="GMpulBl-000TZXIC2TtP-21604" value="" style="edgeStyle=orthogonalEdgeStyle;rounded=0;orthogonalLoop=1;jettySize=auto;html=1;" edge="1" source="GMpulBl-000TZXIC2TtP-21605" parent="1">
          <mxGeometry relative="1" as="geometry">
            <mxPoint x="200" y="600" as="targetPoint" />
          </mxGeometry>
        </mxCell>
        <mxCell id="GMpulBl-000TZXIC2TtP-21605" value="&lt;font color=&quot;#000000&quot;&gt;王延&lt;/font&gt;" style="shape=umlActor;verticalLabelPosition=bottom;verticalAlign=top;html=1;outlineConnect=0;fillColor=#0050ef;fontColor=#ffffff;strokeColor=#001DBC;" vertex="1" parent="1">
          <mxGeometry x="120" y="570" width="30" height="60" as="geometry" />
        </mxCell>
        <mxCell id="GMpulBl-000TZXIC2TtP-21606" style="edgeStyle=orthogonalEdgeStyle;rounded=0;orthogonalLoop=1;jettySize=auto;html=1;" edge="1" target="GMpulBl-000TZXIC2TtP-21605" parent="1">
          <mxGeometry relative="1" as="geometry">
            <mxPoint x="200" y="600" as="sourcePoint" />
          </mxGeometry>
        </mxCell>
        <mxCell id="GMpulBl-000TZXIC2TtP-21607" value="&lt;font color=&quot;#000000&quot;&gt;言滨&lt;/font&gt;" style="shape=umlActor;verticalLabelPosition=bottom;verticalAlign=top;html=1;outlineConnect=0;fillColor=#0050ef;fontColor=#ffffff;strokeColor=#001DBC;" vertex="1" parent="1">
          <mxGeometry x="200" y="570" width="30" height="60" as="geometry" />
        </mxCell>
        <mxCell id="GMpulBl-000TZXIC2TtP-21608" value="" style="edgeStyle=orthogonalEdgeStyle;rounded=0;orthogonalLoop=1;jettySize=auto;html=1;" edge="1" source="GMpulBl-000TZXIC2TtP-21609" parent="1">
          <mxGeometry relative="1" as="geometry">
            <mxPoint x="600" y="680" as="targetPoint" />
          </mxGeometry>
        </mxCell>
        <mxCell id="GMpulBl-000TZXIC2TtP-21609" value="&lt;font color=&quot;#000000&quot;&gt;刘龙&lt;/font&gt;" style="shape=umlActor;verticalLabelPosition=bottom;verticalAlign=top;html=1;outlineConnect=0;fillColor=#0050ef;fontColor=#ffffff;strokeColor=#001DBC;" vertex="1" parent="1">
          <mxGeometry x="520" y="650" width="30" height="60" as="geometry" />
        </mxCell>
        <mxCell id="GMpulBl-000TZXIC2TtP-21610" style="edgeStyle=orthogonalEdgeStyle;rounded=0;orthogonalLoop=1;jettySize=auto;html=1;" edge="1" target="GMpulBl-000TZXIC2TtP-21609" parent="1">
          <mxGeometry relative="1" as="geometry">
            <mxPoint x="600" y="680" as="sourcePoint" />
          </mxGeometry>
        </mxCell>
        <mxCell id="GMpulBl-000TZXIC2TtP-21611" value="&lt;font color=&quot;#000000&quot;&gt;育霖&lt;/font&gt;" style="shape=umlActor;verticalLabelPosition=bottom;verticalAlign=top;html=1;outlineConnect=0;fillColor=#0050ef;fontColor=#ffffff;strokeColor=#001DBC;" vertex="1" parent="1">
          <mxGeometry x="600" y="650" width="30" height="60" as="geometry" />
        </mxCell>
      </root>
    </mxGraphModel>
  </diagram>
</mxfile>
